PathFileType	4	(X/Y/Z)	/Users/itak/Documents/Research/Walk-IL/dataset/trc/00337_00011.trc
DataRate	CameraRate	NumFrames	NumMarkers	Units	OrigDataRate	OrigDataStartFrame	OrigNumFrames
100.000000	100.000000	4	53	mm	100.000000	306	818
Frame#	Time	RPSI			LPSI			L3			STRN			T10			C7			CLAV			RBAK			LBAK			LSHO			LUPA			LAEL			LAOL			LWTS			LWPS			LFRA			LIFD			LHPS			LHTS			RSHO			RUPA			RAEL			RAOL			RWTS			RWPS			RFRA			RIFD			RHTS			RHPS			RBHD			LFHD			RFHD			LBHD			LHIP			RHIP			RASI			LASI			LKNE			LTHI			LANK			LTIP			LTOE			LMT1			LMT5			LHEE			RKNE			RTHI			RANK			RTIP			RTOE			RMT1			RMT5			RHEE			
		X1	Y1	Z1	X2	Y2	Z2	X3	Y3	Z3	X4	Y4	Z4	X5	Y5	Z5	X6	Y6	Z6	X7	Y7	Z7	X8	Y8	Z8	X9	Y9	Z9	X10	Y10	Z10	X11	Y11	Z11	X12	Y12	Z12	X13	Y13	Z13	X14	Y14	Z14	X15	Y15	Z15	X16	Y16	Z16	X17	Y17	Z17	X18	Y18	Z18	X19	Y19	Z19	X20	Y20	Z20	X21	Y21	Z21	X22	Y22	Z22	X23	Y23	Z23	X24	Y24	Z24	X25	Y25	Z25	X26	Y26	Z26	X27	Y27	Z27	X28	Y28	Z28	X29	Y29	Z29	X30	Y30	Z30	X31	Y31	Z31	X32	Y32	Z32	X33	Y33	Z33	X34	Y34	Z34	X35	Y35	Z35	X36	Y36	Z36	X37	Y37	Z37	X38	Y38	Z38	X39	Y39	Z39	X40	Y40	Z40	X41	Y41	Z41	X42	Y42	Z42	X43	Y43	Z43	X44	Y44	Z44	X45	Y45	Z45	X46	Y46	Z46	X47	Y47	Z47	X48	Y48	Z48	X49	Y49	Z49	X50	Y50	Z50	X51	Y51	Z51	X52	Y52	Z52	X53	Y53	Z53	

307	3.06	1032.788696289062	967.8644409179688	650.2443237304688	902.7390747070312	958.9898681640625	646.7704467773438	972.83447265625	1029.214965820312	650.5164794921875	962.951416015625	1201.690551757812	409.2579040527344	966.8711547851562	1148.159545898438	652.1978149414062	947.3479614257812	1394.536254882812	598.9689331054688	954.598876953125	1327.962280273438	447.2241821289062	1018.673583984375	1259.5087890625	655.4708251953125	848.0816650390625	1356.569458007812	611.3809814453125	791.8410034179688	1368.043579101562	525.2205200195312	722.3646240234375	1256.883422851562	563.7034301757812	697.1328735351562	1056.263427734375	588.9569702148438	761.4896850585938	1050.993041992188	645.6499633789062	714.7147827148438	797.657958984375	537.7474975585938	663.0777587890625	799.0525512695312	584.8026123046875	680.7435302734375	951.8098754882812	595.662841796875	707.2974853515625	639.0921630859375	565.1412963867188	663.9797973632812	730.4638671875	600.4370727539062	691.1088256835938	720.1199951171875	542.6255493164062	1108.510620117188	1382.876708984375	544.0354614257812	1176.630004882812	1326.120483398438	557.7294311523438	1273.02783203125	1076.21240234375	548.1152954101562	1190.9267578125	1046.560424804688	587.0867919921875	1284.64892578125	849.12353515625	428.9698486328125	1352.038208007812	849.9244384765625	465.1337890625	1298.1298828125	1013.618408203125	521.2819213867188	1334.506103515625	684.0353393554688	413.6082458496094	1324.692993164062	755.5133056640625	397.2440185546875	1369.970947265625	767.1859741210938	448.3632202148438	1029.78955078125	1598.74267578125	515.9012451171875	891.5150146484375	1582.70849609375	360.7168884277344	992.336669921875	1587.920043945312	357.4305419921875	889.228271484375	1590.708862304688	547.0116577148438	803.0757446289062	902.3999633789062	551.8775024414062	1146.5400390625	915.9724731445312	576.1881713867188	1111.361572265625	941.2022094726562	467.9992065429688	873.7122192382812	929.3334350585938	439.1904296875	854.3609008789062	475.7489013671875	347.2280883789062	831.799072265625	602.0899047851562	396.0280151367188	909.588134765625	140.6595611572266	620.5853881835938	873.5621948242188	292.1839904785156	481.7682189941406	973.5593872070312	42.61773300170898	444.7094116210938	1012.178466796875	65.73213195800781	510.6776123046875	899.1918334960938	75.41957855224609	515.4898071289062	975.8715209960938	159.7113647460938	650.1685791015625	1146.466064453125	449.9766235351562	544.7122192382812	1163.737182617188	709.6512451171875	507.94580078125	1119.564575195312	40.85528564453125	650.3779296875	1140.131958007812	330.256591796875	548.0025634765625	1111.492309570312	33.2681999206543	450.7820129394531	1058.192504882812	30.54276657104492	494.0040893554688	1158.127685546875	24.4383544921875	559.1190185546875	1061.616821289062	47.63306427001953	688.0800170898438	
308	3.07	1035.6015625	967.4156494140625	643.1338500976562	905.5416259765625	958.7952880859375	641.1660766601562	975.9351806640625	1029.046997070312	644.4800415039062	962.9562377929688	1200.954223632812	402.444091796875	970.0641479492188	1148.000366210938	645.5193481445312	949.8500366210938	1394.15185546875	591.8190307617188	954.9973754882812	1327.28173828125	440.2190856933594	1022.10107421875	1259.28076171875	647.6243896484375	850.7885131835938	1356.235595703125	605.8079833984375	793.3438110351562	1367.427612304688	520.4309692382812	724.7551879882812	1256.10693359375	560.1114501953125	700.5535278320312	1055.6044921875	586.5399169921875	765.9609375	1050.580078125	641.8903198242188	716.9821166992188	796.732177734375	536.229248046875	666.3342895507812	798.4185791015625	584.2889404296875	684.2140502929688	951.1618041992188	593.978759765625	710.1466674804688	638.3155517578125	564.77734375	667.6400756835938	729.9605102539062	600.4119262695312	693.4979858398438	719.2203369140625	542.0521240234375	1110.221923828125	1382.53173828125	534.6797485351562	1178.613159179688	1325.914916992188	547.3846435546875	1276.724975585938	1076.864501953125	534.3583374023438	1195.373413085938	1046.242309570312	574.2249755859375	1288.071411132812	851.3070678710938	412.3401489257812	1355.944458007812	852.0724487304688	447.6292419433594	1301.871948242188	1014.714599609375	506.4991149902344	1338.782592773438	686.8507080078125	393.9520568847656	1328.367065429688	758.4968872070312	378.7132873535156	1374.178833007812	769.6678466796875	429.4277648925781	1031.167358398438	1598.2099609375	507.4419250488281	890.6605834960938	1582.180908203125	354.2934875488281	991.4758911132812	1587.4150390625	349.4989929199219	891.1203002929688	1590.25244140625	540.6035766601562	804.67431640625	902.550537109375	547.17578125	1148.433471679688	915.0032348632812	567.9835205078125	1112.286743164062	939.9541015625	460.2774658203125	874.332275390625	929.1754760742188	433.7766723632812	853.31494140625	477.3207397460938	338.3221435546875	830.7705688476562	603.484619140625	388.8979187011719	915.7916259765625	130.2109069824219	595.7617797851562	875.9287109375	287.8831481933594	465.028076171875	972.3467407226562	41.95079803466797	412.0094299316406	1013.689270019531	60.99877548217773	477.7954406738281	901.0808715820312	71.32527160644531	487.4896850585938	983.1740112304688	147.2889862060547	623.9580078125	1146.529541015625	449.2831726074219	541.2891845703125	1164.193969726562	708.3621215820312	501.6254272460938	1119.199829101562	41.17136001586914	650.2343139648438	1139.936279296875	329.5191955566406	545.5546875	1111.346557617188	33.18326568603516	450.6431579589844	1058.071166992188	30.28727531433105	493.8346862792969	1157.92919921875	24.69872093200684	558.93603515625	1061.213745117188	47.74766159057617	687.930908203125	
309	3.08	1038.223510742188	966.9259643554688	635.9447021484375	908.1961059570312	958.6139526367188	635.3949584960938	978.8958129882812	1028.769165039062	638.3048095703125	962.8362426757812	1200.150146484375	395.6015319824219	973.1368408203125	1147.76513671875	638.80859375	952.17578125	1393.671020507812	584.6375122070312	955.2672119140625	1326.530883789062	433.2103576660156	1025.324584960938	1258.972534179688	639.7450561523438	853.3154907226562	1355.811889648438	600.1596069335938	794.7025146484375	1366.711059570312	515.55712890625	727.061767578125	1255.20068359375	556.3556518554688	703.9909057617188	1054.81103515625	583.8718872070312	770.3211669921875	1050.04248046875	637.9055786132812	719.4593505859375	795.6593627929688	534.5187377929688	669.772705078125	797.6266479492188	583.499755859375	687.749755859375	950.3771362304688	592.0079345703125	713.3115234375	637.405029296875	564.2567138671875	671.5498657226562	729.3212890625	600.1621704101562	696.1571044921875	718.1581420898438	541.2786254882812	1111.743530273438	1382.112060546875	525.3382568359375	1180.38037109375	1325.616821289062	537.0733642578125	1279.991333007812	1077.391967773438	520.6411743164062	1199.359619140625	1045.864013671875	561.2720947265625	1291.07421875	853.3767700195312	395.8569641113281	1359.401489257812	854.1294555664062	430.3286743164062	1305.171020507812	1015.717712402344	491.7870483398438	1342.613891601562	689.5862426757812	374.5744323730469	1331.617797851562	761.37158203125	360.4224243164062	1377.931762695312	772.0803833007812	410.7664184570312	1032.375	1597.594360351562	499.0284729003906	889.7130737304688	1581.592407226562	347.8893127441406	990.5038452148438	1586.8447265625	341.6272277832031	892.8433837890625	1589.7158203125	534.18408203125	806.1893920898438	902.63427734375	542.3174438476562	1150.18896484375	913.9848022460938	559.8153076171875	1113.114624023438	938.6442260742188	452.5732421875	874.897216796875	928.9482421875	428.213134765625	852.3504028320312	478.4830932617188	330.1336364746094	829.7861938476562	604.6065673828125	382.1758422851562	921.2865600585938	119.6568069458008	570.0682373046875	877.91943359375	283.3328552246094	448.2234497070312	970.1072387695312	41.49289321899414	379.3627624511719	1014.123840332031	56.45740127563477	444.63134765625	902.1134643554688	67.26291656494141	459.1860046386719	989.7322998046875	134.7836761474609	596.7197875976562	1146.478759765625	448.5750427246094	537.8304443359375	1164.531494140625	707.0277099609375	495.2895202636719	1118.828979492188	41.48641204833984	650.08837890625	1139.689697265625	328.7722473144531	543.084228515625	1111.209228515625	33.09317016601562	450.497802734375	1057.937133789062	30.00494384765625	493.6882019042969	1157.74951171875	24.9677906036377	558.742919921875	1060.787231445312	47.86975479125977	687.7650756835938	
310	3.09	1040.637573242188	966.3949584960938	628.6716918945312	910.6787109375	958.4339599609375	629.44189453125	981.6914672851562	1028.389892578125	631.9624633789062	962.5972900390625	1199.286865234375	388.7247314453125	976.0940551757812	1147.4521484375	632.0746459960938	954.326416015625	1393.099975585938	577.4302368164062	955.4144287109375	1325.719360351562	426.1943359375	1028.346313476562	1258.582275390625	631.8234252929688	855.6689453125	1355.299194335938	594.4382934570312	795.916259765625	1365.895385742188	510.5993041992188	729.2780151367188	1254.176147460938	552.4488525390625	707.42138671875	1053.892456054688	580.9680786132812	774.5631713867188	1049.387451171875	633.710693359375	722.1331176757812	794.4530029296875	532.5963745117188	673.375244140625	796.6845092773438	582.4226684570312	691.339111328125	949.466796875	589.7643432617188	716.7832641601562	636.3740844726562	563.5337524414062	675.6881713867188	728.5571899414062	599.664306640625	699.0770874023438	716.9464721679688	540.2763061523438	1113.078369140625	1381.628051757812	516.0142822265625	1181.937255859375	1325.238037109375	526.7930297851562	1282.825561523438	1077.799438476562	506.9703369140625	1202.881713867188	1045.423461914062	548.245849609375	1293.652099609375	855.3233032226562	379.5367126464844	1362.403442382812	856.0795288085938	413.2474365234375	1308.021728515625	1016.6220703125	477.1597595214844	1345.994750976562	692.2225341796875	355.5032348632812	1334.437377929688	764.118896484375	342.3917541503906	1381.224975585938	774.4080810546875	392.4002075195312	1033.412475585938	1596.899291992188	490.6579895019531	888.670654296875	1580.941040039062	341.5011901855469	989.4170532226562	1586.20556640625	333.816162109375	894.3955078125	1589.0986328125	527.7505493164062	807.610595703125	902.6467895507812	537.2841796875	1151.802368164062	912.9263305664062	551.6891479492188	1113.84423828125	937.2896118164062	444.8800964355469	875.4041137695312	928.6497802734375	422.4855346679688	851.5153198242188	479.1730651855469	322.6969604492188	828.8649291992188	605.4166870117188	375.8699035644531	926.0470581054688	109.1355133056641	543.5604248046875	879.5388793945312	278.5879211425781	431.3820190429688	966.93798828125	41.34919738769531	346.8777465820312	1013.540222167969	52.2470588684082	411.3065185546875	902.3414306640625	63.32650375366211	430.6506958007812	995.499755859375	122.3706359863281	568.5217895507812	1146.3134765625	447.8484802246094	534.3103637695312	1164.754516601562	705.6578979492188	488.9086303710938	1118.456665039062	41.80072021484375	649.9367065429688	1139.400268554688	328.0191650390625	540.5787353515625	1111.082885742188	32.99526214599609	450.3497619628906	1057.789184570312	29.70065689086914	493.5676574707031	1157.59033203125	25.23453521728516	558.5485229492188	1060.348510742188	48.01287460327148	687.5797729492188	
